<?xml version="1.0" standalone="no"?>
<!DOCTYPE svg PUBLIC "-//W3C//DTD SVG 20010904//EN"
 "http://www.w3.org/TR/2001/REC-SVG-20010904/DTD/svg10.dtd">
<svg version="1.0" xmlns="http://www.w3.org/2000/svg"
 width="100.000000pt" height="100.000000pt" viewBox="0 0 100.000000 100.000000"
 preserveAspectRatio="xMidYMid meet">

<g transform="translate(0.000000,100.000000) scale(0.100000,-0.100000)"
fill="#000000" stroke="none">
<path d="M381 873 l-33 -4 6 -60 7 -60 -26 7 c-20 5 -24 3 -19 -9 3 -10 -2
-18 -16 -22 -12 -4 -28 -22 -36 -40 -7 -18 -20 -35 -29 -38 -9 -4 -15 -19 -15
-39 0 -28 -2 -30 -13 -15 -11 16 -15 16 -60 1 -54 -18 -62 -27 -48 -52 5 -10
6 -24 0 -34 -6 -11 2 -32 32 -75 56 -84 83 -107 124 -107 l34 0 3 -65 c3 -61
5 -67 32 -80 16 -7 60 -13 102 -13 41 0 77 -4 80 -9 3 -5 58 -9 123 -9 91 0
121 3 130 14 8 9 11 42 10 86 -1 43 2 75 9 82 7 7 12 21 12 33 0 12 20 45 45
74 43 51 45 55 29 72 -11 13 -21 16 -33 10 -25 -14 -54 -49 -48 -58 3 -5 -3
-9 -13 -9 -14 0 -16 4 -10 17 6 10 5 20 -2 27 -9 9 -9 12 1 12 11 0 11 3 1 15
-7 9 -29 15 -55 15 -49 0 -77 24 -69 57 4 13 -1 29 -13 40 -10 11 -25 33 -33
49 -9 16 -25 33 -36 39 -11 6 -19 16 -16 24 3 10 -1 12 -18 8 -22 -6 -22 -4
-18 50 3 35 1 56 -6 58 -25 8 -83 11 -115 8z m180 -172 c16 -13 22 -32 26 -83
6 -72 0 -83 -51 -83 -24 0 -31 -5 -36 -25 -5 -23 -11 -25 -75 -28 -130 -6
-155 13 -155 120 0 59 4 76 21 94 20 21 30 23 135 23 92 0 117 -3 135 -18z
m-339 -181 l25 -70 -23 -6 c-15 -4 -21 -11 -17 -22 4 -13 3 -14 -5 -4 -5 8
-17 12 -28 10 -14 -2 -19 4 -21 25 -1 15 -11 43 -22 61 -12 18 -21 38 -21 43
0 8 40 23 81 32 4 0 18 -31 31 -69z m38 16 c0 -24 35 -57 67 -64 l32 -7 -54
-25 c-53 -25 -54 -26 -49 -5 3 12 -4 46 -15 76 -25 66 -25 62 -1 49 11 -6 20
-17 20 -24z m380 14 c0 -6 12 -15 26 -20 38 -15 19 -30 -36 -30 -51 0 -75 15
-43 27 10 3 22 12 26 20 9 15 27 17 27 3z m110 -30 c0 -5 -2 -10 -4 -10 -3 0
-8 5 -11 10 -3 6 -1 10 4 10 6 0 11 -4 11 -10z m-611 -40 c13 -37 -5 -41 -19
-4 -12 31 -12 34 -1 34 5 0 14 -13 20 -30z m426 20 c9 -14 111 -12 135 2 23
15 37 4 41 -32 4 -28 -19 -90 -32 -90 -5 0 -9 -5 -9 -11 0 -5 4 -8 9 -4 6 3 8
-8 6 -25 -4 -26 -1 -30 13 -26 15 5 17 -2 14 -59 l-4 -65 -109 0 -109 0 0 153
c0 85 3 157 7 160 10 10 31 8 38 -3z m295 -4 c0 -8 -5 -18 -11 -22 -14 -8 -33
11 -25 25 10 16 36 13 36 -3z m-236 -314 c72 -2 113 1 122 9 12 10 13 9 8 -5
-6 -14 -22 -16 -128 -14 l-121 3 -1 155 0 155 5 -150 6 -150 109 -3z m196 253
c-17 -18 -27 -22 -40 -15 -10 5 -21 6 -26 2 -5 -4 -2 1 5 10 7 10 18 16 24 15
6 -1 12 4 13 11 1 6 2 14 3 17 0 3 10 1 22 -6 l21 -11 -22 -23z m-334 9 c8
-31 -44 -196 -60 -191 -27 9 -70 190 -49 210 3 4 28 7 54 7 44 0 49 -3 55 -26z
m289 -44 c3 -5 -3 -10 -14 -10 -12 0 -21 5 -21 10 0 6 6 10 14 10 8 0 18 -4
21 -10z m5 -30 c0 -5 -11 -10 -25 -10 -14 0 -25 5 -25 10 0 6 11 10 25 10 14
0 25 -4 25 -10z m-10 -30 c0 -5 -6 -10 -14 -10 -8 0 -18 5 -21 10 -3 6 3 10
14 10 12 0 21 -4 21 -10z"/>
<path d="M325 629 c-10 -30 18 -58 43 -43 9 6 17 22 17 35 0 34 -50 41 -60 8z"/>
<path d="M470 635 c-18 -22 -1 -50 31 -50 20 0 24 5 24 30 0 23 -5 31 -21 33
-11 2 -27 -4 -34 -13z m50 -15 c0 -5 -4 -10 -10 -10 -5 0 -10 5 -10 10 0 6 5
10 10 10 6 0 10 -4 10 -10z"/>
<path d="M390 545 c7 -8 23 -15 35 -15 12 0 28 7 35 15 15 18 7 19 -20 3 -15
-10 -22 -10 -32 0 -17 17 -33 15 -18 -3z"/>
<path d="M173 526 c3 -8 2 -16 -2 -18 -5 -2 -5 -12 -1 -23 7 -19 8 -19 18 5 5
14 6 26 1 28 -5 2 -7 8 -3 13 3 5 0 9 -6 9 -7 0 -10 -6 -7 -14z"/>
<path d="M565 462 c-19 -7 -20 -8 -4 -24 16 -15 17 -14 22 8 2 13 4 24 3 23 0
-1 -10 -4 -21 -7z"/>
<path d="M633 443 c15 -2 39 -2 55 0 15 2 2 4 -28 4 -30 0 -43 -2 -27 -4z"/>
<path d="M575 401 c-3 -6 -10 -9 -15 -6 -5 3 -11 1 -15 -5 -3 -5 0 -10 7 -10
9 0 9 -3 -2 -10 -12 -8 -10 -10 9 -10 13 0 21 3 18 7 -4 3 -2 12 5 20 6 7 8
16 5 19 -3 3 -8 0 -12 -5z"/>
<path d="M628 373 c12 -2 32 -2 45 0 12 2 2 4 -23 4 -25 0 -35 -2 -22 -4z"/>
<path d="M680 336 c-13 -36 -13 -36 8 -36 13 0 14 2 3 9 -11 7 -10 11 5 19 15
8 16 13 7 23 -10 10 -14 6 -23 -15z"/>
<path d="M540 332 c0 -4 9 -8 20 -8 11 0 20 4 20 8 0 4 -9 8 -20 8 -11 0 -20
-4 -20 -8z"/>
<path d="M623 313 c9 -2 23 -2 30 0 6 3 -1 5 -18 5 -16 0 -22 -2 -12 -5z"/>
<path d="M540 298 c0 -4 9 -8 20 -8 11 0 20 4 20 8 0 4 -9 8 -20 8 -11 0 -20
-4 -20 -8z"/>
<path d="M575 271 c-3 -6 -10 -9 -15 -6 -5 3 -11 1 -15 -5 -3 -5 3 -10 14 -10
20 0 38 17 28 26 -3 3 -8 0 -12 -5z"/>
<path d="M633 243 c15 -2 39 -2 55 0 15 2 2 4 -28 4 -30 0 -43 -2 -27 -4z"/>
<path d="M799 433 c-13 -16 -12 -17 4 -4 16 13 21 21 13 21 -2 0 -10 -8 -17
-17z"/>
<path d="M380 415 c0 -19 5 -22 45 -21 39 1 45 4 45 22 0 18 -6 21 -45 21 -40
0 -45 -3 -45 -22z"/>
<path d="M420 360 c0 -5 5 -10 10 -10 6 0 10 5 10 10 0 6 -4 10 -10 10 -5 0
-10 -4 -10 -10z"/>
<path d="M420 310 c0 -5 5 -10 11 -10 5 0 7 5 4 10 -3 6 -8 10 -11 10 -2 0 -4
-4 -4 -10z"/>
<path d="M729 795 c-37 -20 -56 -69 -41 -107 6 -16 8 -36 5 -44 -5 -14 31 -20
97 -16 37 2 70 45 70 92 0 30 -6 43 -31 64 -34 29 -61 32 -100 11z m80 -10
c48 -24 57 -87 17 -124 -19 -18 -33 -22 -68 -19 -40 3 -44 5 -55 43 -15 47 -2
82 37 102 32 16 35 16 69 -2z"/>
<path d="M785 720 c-27 -28 -30 -29 -47 -13 -10 9 -18 12 -18 6 0 -5 8 -17 18
-26 17 -16 21 -14 57 23 22 22 34 40 29 40 -6 0 -23 -13 -39 -30z"/>
</g>
</svg>
