<svg id="Layer_1" data-name="Layer 1" xmlns="http://www.w3.org/2000/svg" viewBox="0 0 311.86 542.98"><defs><style>.cls-1{fill:#262036;}.cls-2{fill:#faf5e8;}.cls-3{fill:#3c354b;}.cls-4{fill:#41394e;}.cls-5{fill:#262037;}.cls-6{fill:#f7a7bf;}.cls-7{fill:#bcb892;}</style></defs><path class="cls-1" d="M346.46,367c-26.36-41.16-79.28-44.82-83.64-45.77-4-1.13-2.13-5.43-2.53-8H160.14c-.41,2.54,1.46,6.84-2.53,8-4.36.95-57.28,4.61-83.65,45.77C44.54,420.06,56.5,511.67,57.65,521.54c0,0-1.58,15,43.18,23.12a76.29,76.29,0,0,1,9.93-.74l.19,4.17c10.59,3.16,86,36.32,99.26,12.46,13.23,23.86,88.68-9.3,99.27-12.46l.18-4a78.59,78.59,0,0,1,9.82.75c44.76-8.15,43.3-23.27,43.3-23.26C363.92,511.67,375.89,420.06,346.46,367Z" transform="translate(-54.28 -26.15)"/><path class="cls-2" d="M251.1,313.21H169.33c.75,10.5-.64,11.63-2.91,14.16,0,74.1,43.79,153.58,43.79,153.58S254,401.47,254,327.37C251.73,324.84,250.34,323.71,251.1,313.21Z" transform="translate(-54.28 -26.15)"/><path class="cls-3" d="M154.44,331.23s2,77.89,46,155c-14.66-13.15-18.71-14.92-69.8-93.07-1.77-4.3-4.3-7.21,3.42-14.16A137.49,137.49,0,0,0,145,366.13c.51-.76-21.49-10.24-21.49-10.24l14.16-19.22S140.91,333,154.44,331.23Z" transform="translate(-54.28 -26.15)"/><path class="cls-3" d="M265.08,331.23s-2,77.89-46,155c14.67-13.15,18.72-14.92,69.8-93.07,1.77-4.3,4.3-7.21-3.41-14.16a138.7,138.7,0,0,1-10.88-12.9c-.5-.76,21.5-10.24,21.5-10.24L281.9,336.67S278.61,333,265.08,331.23Z" transform="translate(-54.28 -26.15)"/><path class="cls-3" d="M110.77,544l-5.13-133.65s-5.88.57-5.5,40.4.69,93.87.69,93.87S108,545.39,110.77,544Z" transform="translate(-54.28 -26.15)"/><path class="cls-3" d="M309.66,544.05l5-133.74s5.88.57,5.5,40.4-.72,94.09-.72,94.09S312.4,545.4,309.66,544.05Z" transform="translate(-54.28 -26.15)"/><circle class="cls-1" cx="155.93" cy="365.82" r="7.49"/><circle class="cls-1" cx="155.93" cy="402.04" r="7.49"/><circle class="cls-4" cx="155.93" cy="492.25" r="7.49"/><path class="cls-1" d="M205.42,342.56s-17.17-16.06-27.61-9.32a3.64,3.64,0,0,0-1.64,2.55c-.73,5-.53,17.39-.53,17.39l.58,10.51a5.94,5.94,0,0,0,.57,2.27c1.48,3,6.41,9.82,18.57,1a94,94,0,0,0,9.11-8.21,7.92,7.92,0,0,0,5.44,2.52,6.89,6.89,0,0,0,5.43-1.64l16.06,9.61c3,1.52,10.62,2.4,12.4-3.54,1.13-6.58,1-28.07,1-28.07s-.76-8.17-10.37-6.05c-7.34,2.63-18.08,10.85-18.08,10.85S210,336.49,205.42,342.56Z" transform="translate(-54.28 -26.15)"/><rect class="cls-3" x="9.45" y="168.68" width="37.37" height="64.11" rx="15.93"/><path class="cls-5" d="M85.17,263.78h-5.5A20.79,20.79,0,0,1,58.9,243V210.77A20.79,20.79,0,0,1,79.67,190h5.5a20.8,20.8,0,0,1,20.77,20.78V243A20.8,20.8,0,0,1,85.17,263.78Zm-5.5-64.11a11.11,11.11,0,0,0-11.1,11.1V243a11.11,11.11,0,0,0,11.1,11.1h5.5A11.1,11.1,0,0,0,96.26,243V210.77a11.1,11.1,0,0,0-11.09-11.1Z" transform="translate(-54.28 -26.15)"/><rect class="cls-3" x="264.62" y="168.68" width="37.37" height="64.11" rx="15.93"/><path class="cls-5" d="M340.33,263.78h-5.5A20.8,20.8,0,0,1,314.06,243V210.77A20.8,20.8,0,0,1,334.83,190h5.5a20.79,20.79,0,0,1,20.77,20.78V243A20.79,20.79,0,0,1,340.33,263.78Zm-5.5-64.11a11.1,11.1,0,0,0-11.09,11.1V243a11.1,11.1,0,0,0,11.09,11.1h5.5a11.11,11.11,0,0,0,11.1-11.1V210.77a11.11,11.11,0,0,0-11.1-11.1Z" transform="translate(-54.28 -26.15)"/><rect class="cls-2" x="32.97" y="105.71" width="245.06" height="190.05" rx="60.51"/><path class="cls-5" d="M271.81,326.75h-124a65.41,65.41,0,0,1-65.34-65.34v-69A65.42,65.42,0,0,1,147.76,127H271.81a65.43,65.43,0,0,1,65.35,65.35v69A65.42,65.42,0,0,1,271.81,326.75Zm-124-190A55.73,55.73,0,0,0,92.1,192.37v69a55.67,55.67,0,0,0,55.66,55.67H271.81a55.68,55.68,0,0,0,55.67-55.67v-69a55.73,55.73,0,0,0-55.67-55.67l-38.76,5.58a146.54,146.54,0,0,1-39.58.3Z" transform="translate(-54.28 -26.15)"/><circle class="cls-5" cx="104.1" cy="198.84" r="27.44"/><circle class="cls-2" cx="110.8" cy="194.04" r="6.7"/><circle class="cls-5" cx="206.91" cy="198.84" r="27.44"/><circle class="cls-2" cx="213.61" cy="194.04" r="6.7"/><path class="cls-5" d="M210.48,290.23c-17.32.15-30.17-16.83-30.57-17.51-3.75-5,4.21-10.82,7.83-5.69h0c8.5,12,28.57,22.55,44.22-.09a4.84,4.84,0,0,1,7.69,5.88C230.81,284.37,221,290.23,210.48,290.23Z" transform="translate(-54.28 -26.15)"/><path class="cls-5" d="M291.85,113.91c-2.4-9.49-17.45-1.27-22.38,1.77-2,1.77-8.72,1.26-9.61,0-1.26-32.37,7.21-73.34,7.21-73.34s1.26-6.33-1.52-8.22c-15.81-8.35-55.76-8-55.76-8s-40-.38-55.77,8c-2.78,1.89-1.52,8.22-1.52,8.22s8.48,41,7.21,73.34c-.88,1.26-7.58,1.77-9.61,0-4.93-3-20-11.26-22.38-1.77-.13,3.29-1.39,7,9.36,12.26a5.8,5.8,0,0,1,2.15,3.8H280.35a5.74,5.74,0,0,1,2.15-3.8C293.24,120.86,292,117.2,291.85,113.91Z" transform="translate(-54.28 -26.15)"/><path class="cls-3" d="M167.58,92.3s29.08,9.73,84.34,1.64c-1.14,15.24-.75,19.28-.75,19.28s-43.38,7.65-82.94-1.64C168.86,99.19,167.58,92.3,167.58,92.3Z" transform="translate(-54.28 -26.15)"/><path class="cls-6" d="M272.44,389.06c11.84,11.31,20.28,22.23,10.11,42.74C269.23,423.54,263.88,409.22,272.44,389.06Z" transform="translate(-54.28 -26.15)"/><path class="cls-6" d="M286.09,431.8c12.12-21.46,7.15-17.65,30.86-26.94C317,404.86,320.11,437.87,286.09,431.8Z" transform="translate(-54.28 -26.15)"/><path class="cls-6" d="M312.27,401.58s1.14-15.56-13.66-14c2.15-4.05,2.28-5.44,2.28-5.44s5.81-5.18,14.41,9.74c1.9,1.64,3.32,3.29,1.72,5.06S312.27,401.58,312.27,401.58Z" transform="translate(-54.28 -26.15)"/><path class="cls-6" d="M289.76,395.63l4.81-12.77c-5.93-5.52-8.46-3.31-15.18.89,0,0,9.61,2.9,8.73,11.88Z" transform="translate(-54.28 -26.15)"/><path class="cls-6" d="M290.27,398.16l2.78,6.7c1.14-.76,6.32-5.18,11.63-3.35a6,6,0,0,0,0-3.35c-1.14-3.29-2-6.57-7.09-4.8S291.15,394.75,290.27,398.16Z" transform="translate(-54.28 -26.15)"/><path class="cls-7" d="M281.92,436.91s-3.71,12.9-4,13.18c.05,5.41.71,12.24-4.41,17.45-7.72-7-5.33-10.57.76-16.69,2.84-6.54,6.07-15.17,6.07-15.17S279.93,438.71,281.92,436.91Z" transform="translate(-54.28 -26.15)"/><path class="cls-7" d="M273.38,436.62s-6.16-9-6.44-9.29c-4-2.76-11.6,4.29-4.46,9.29,2.65,1.81,4,3.23,7.78,1.9C272.53,438.24,273.1,438.14,273.38,436.62Z" transform="translate(-54.28 -26.15)"/><path class="cls-7" d="M285.33,449.71a7.84,7.84,0,0,1-.75-1.23c.47-1.71,4.36-5.5,5-5.79,2.09-.28,5.79.48,9.68,3.51a28.56,28.56,0,0,1,5.21,4.56c-.95,1.42-3,4.07-11.09,2.27C287.23,451.23,285.33,449.71,285.33,449.71Z" transform="translate(-54.28 -26.15)"/></svg>