<svg width="136" height="32" viewBox="0 0 136 32" fill="none" xmlns="http://www.w3.org/2000/svg">
<path d="M98.1311 32C89.2727 32 84.0318 26.0109 84.2748 18.2247C84.5855 8.25653 93.363 0 103.832 0C108.324 0 111.914 1.16223 114.303 2.38295L112.907 9.75441C109.913 8.12581 107.34 7.14442 103.186 7.14442C96.659 7.14442 92.3523 12.0219 92.1888 17.2836C92.0578 21.4745 94.5788 24.9406 99.4525 24.9406C100.555 24.9406 101.831 24.7701 102.686 24.5568L104.594 14.4756L112.017 14.4771L109.139 29.6893C105.998 31.1449 101.861 32 98.1311 32Z" fill="black"/>
<path d="M136 14.8951L120.822 5.89473L116.81 26.9474L136 14.8951Z" fill="black"/>
<path d="M24.0365 20.8216C25.7008 20.8216 27.4862 19.3467 27.4862 16.9964C27.4862 15.4711 26.5211 14.5469 25.2185 14.5469C23.5785 14.5469 21.7444 16.0964 21.7444 18.4462C21.7444 19.9468 22.7096 20.8216 24.0365 20.8216ZM25.2671 10.9474C29.0057 10.9474 31.7072 13.2221 31.7072 16.7213C31.7072 21.2711 27.8232 24.4211 23.965 24.4211C20.2254 24.4211 17.5235 22.1711 17.5235 18.6462C17.5235 14.1216 21.3836 10.9474 25.2671 10.9474Z" fill="black"/>
<path d="M41.7277 15.2454C42.286 15.2454 42.8192 15.1462 43.2242 14.874C44.0611 14.33 44.5939 13.3164 44.5939 12.1538C44.5939 11.1143 43.9855 10.4472 42.7676 10.4472H40.5359L39.5722 15.2454H41.7277ZM36.8323 6.73685H43.7569C44.8224 6.73685 45.7355 6.90936 46.5218 7.28079C48.2213 8.07202 49.1595 9.70433 49.1595 11.7574C49.1595 14.7264 47.4355 17.2491 44.9998 18.361C44.1378 18.7578 43.1736 18.9557 42.2098 18.9557H38.836L37.7459 24.4211H33.3071L36.8323 6.73685Z" fill="black"/>
<path d="M54.4957 21.1216C55.5928 21.1216 56.7883 19.8966 56.984 18.847L57.0331 18.5709H56.6422C55.7394 18.5709 53.4714 18.7714 53.4714 20.2967C53.4714 20.7714 53.7876 21.1216 54.4957 21.1216ZM57.3007 16.0972H57.4718C57.4964 15.9219 57.52 15.6971 57.52 15.6216C57.52 14.772 56.9353 14.4465 55.9346 14.4465C54.3487 14.4465 52.2996 15.6216 52.2996 15.6216L51.3967 12.3714C51.3967 12.3714 53.9833 10.9474 56.7646 10.9474C58.8865 10.9474 61.7407 11.7965 61.7407 15.0466C61.7407 15.422 61.6925 15.8463 61.6187 16.2968L60.1557 24.1208H56.3004L56.4465 23.3463C56.5207 22.922 56.6668 22.5466 56.6668 22.5466H56.6176C56.6176 22.5466 55.2515 24.4211 52.9093 24.4211C51.0313 24.4211 49.2256 23.2712 49.2256 21.0964C49.2256 17.1962 54.0807 16.0972 57.3007 16.0972Z" fill="black"/>
<path d="M64.1433 26.6366C64.9143 26.6366 65.8392 26.4316 66.5326 25.3072L66.9179 24.6937L63.8098 11.7895H68.4337L69.5124 18.3057C69.6408 19.0217 69.6408 20.2486 69.6408 20.2486H69.6931C69.6931 20.2486 70.1555 19.0974 70.4885 18.3825L73.4434 11.7895H78.4277L70.1555 26.3543C68.5108 29.2429 66.2245 30.3158 64.3747 30.3158C62.4219 30.3158 60.9067 29.2944 60.9067 29.2944L62.8331 26.2271C62.8331 26.2271 63.3722 26.6366 64.1433 26.6366Z" fill="black"/>
<path d="M8.09495 25.2631C2.92233 25.2631 -0.137242 21.638 0.00473402 16.9255C0.185742 10.892 5.31055 5.89473 11.4238 5.89473C14.0467 5.89473 16.1261 6.58588 17.521 7.32551L16.7121 11.8006C14.9635 10.8144 13.4715 10.2187 11.0472 10.2187C7.23529 10.2187 4.72069 13.1712 4.62556 16.3553C4.54896 18.8928 6.02044 20.9912 8.8668 20.9912C9.51033 20.9912 10.2558 20.8866 10.7549 20.7579L11.8688 14.6566H16.1949L14.5224 23.8645C12.6889 24.7456 10.2729 25.2631 8.09495 25.2631Z" fill="black"/>
<path fill-rule="evenodd" clip-rule="evenodd" d="M0.981558 32C0.797054 32 0.631289 31.9654 0.484262 31.8962C0.334353 31.8271 0.216155 31.7276 0.129668 31.5979C0.0431821 31.4652 -6.10352e-05 31.3038 -6.10352e-05 31.1135C-6.10352e-05 30.9492 0.0316511 30.8137 0.0950743 30.7071C0.158498 30.6004 0.243541 30.5168 0.350207 30.4562C0.456873 30.3928 0.576515 30.3453 0.709127 30.3135C0.841739 30.2818 0.977233 30.2588 1.11561 30.2443C1.29147 30.2242 1.43273 30.2069 1.53939 30.1925C1.64894 30.178 1.72822 30.1564 1.77723 30.1276C1.82624 30.0959 1.85074 30.0469 1.85074 29.9806V29.9676C1.85074 29.8004 1.80462 29.6721 1.71236 29.5827C1.62011 29.4905 1.48174 29.4443 1.29723 29.4443C1.10696 29.4443 0.957052 29.4862 0.847503 29.5698C0.737954 29.6534 0.663001 29.7471 0.622641 29.8508L0.0864252 29.7298C0.149848 29.551 0.243542 29.4069 0.367505 29.2973C0.488586 29.1907 0.628406 29.1114 0.786964 29.0595C0.948405 29.0105 1.11705 28.986 1.29291 28.986C1.40822 28.986 1.53075 28.9989 1.66048 29.0249C1.79309 29.0537 1.91561 29.1042 2.02804 29.1762C2.14336 29.2483 2.23705 29.3507 2.30912 29.4833C2.38408 29.6159 2.42155 29.7889 2.42155 30.0022V31.9352H1.86804V31.5373H1.84642C1.80894 31.6123 1.75273 31.6843 1.67777 31.7535C1.6057 31.8256 1.51201 31.8847 1.39669 31.9308C1.28138 31.977 1.143 32 0.981558 32ZM1.10696 31.546C1.26264 31.546 1.39669 31.5143 1.50912 31.4508C1.62156 31.3903 1.7066 31.3096 1.76426 31.2087C1.8248 31.1078 1.85507 30.9997 1.85507 30.8843V30.5081C1.83489 30.5283 1.79597 30.5471 1.73831 30.5644C1.68065 30.5816 1.61435 30.5961 1.53939 30.6076C1.46732 30.622 1.39669 30.6335 1.3275 30.6422C1.25831 30.6508 1.20066 30.658 1.15453 30.6638C1.0421 30.6782 0.941198 30.7027 0.851829 30.7373C0.76246 30.769 0.690388 30.8152 0.635613 30.8757C0.580839 30.9391 0.55345 31.0213 0.55345 31.1222C0.55345 31.2606 0.605344 31.3658 0.709127 31.4379C0.81291 31.5099 0.945521 31.546 1.10696 31.546Z" fill="black"/>
<path d="M5.3967 31.9351L4.31995 28.0519H4.934L5.69075 31.0616H5.72967L6.5167 28.0519H7.12642L7.91345 31.0616H7.94804L8.7048 28.0519H9.32317L8.24209 31.9351H7.65399L6.83669 29.0292H6.80642L5.98913 31.9351H5.3967Z" fill="black"/>
<path fill-rule="evenodd" clip-rule="evenodd" d="M10.7545 31.9957C10.4806 31.9957 10.2428 31.9323 10.041 31.8054C9.83631 31.6815 9.67775 31.507 9.56532 31.2822C9.45288 31.0573 9.39667 30.795 9.39667 30.4952C9.39667 30.1925 9.45288 29.9272 9.56532 29.6995C9.67775 29.4746 9.83631 29.2988 10.041 29.1719C10.2428 29.048 10.4806 28.986 10.7545 28.986C11.0284 28.986 11.2662 29.048 11.468 29.1719C11.6727 29.2988 11.8313 29.4746 11.9437 29.6995C12.0561 29.9272 12.1123 30.1925 12.1123 30.4952C12.1123 30.795 12.0561 31.0573 11.9437 31.2822C11.8313 31.507 11.6727 31.6815 11.468 31.8054C11.2662 31.9323 11.0284 31.9957 10.7545 31.9957ZM10.7545 31.52C10.9332 31.52 11.0803 31.4725 11.1956 31.3773C11.3109 31.2851 11.3974 31.1611 11.455 31.0054C11.5127 30.8498 11.5415 30.6782 11.5415 30.4908C11.5415 30.3063 11.5127 30.1348 11.455 29.9762C11.3974 29.8206 11.3109 29.6952 11.1956 29.6C11.0803 29.5078 10.9332 29.4617 10.7545 29.4617C10.5786 29.4617 10.4316 29.5078 10.3134 29.6C10.1952 29.6952 10.1087 29.8206 10.054 29.9762C9.99631 30.1348 9.96748 30.3063 9.96748 30.4908C9.96748 30.6782 9.99631 30.8498 10.054 31.0054C10.1087 31.1611 10.1952 31.2851 10.3134 31.3773C10.4316 31.4725 10.5786 31.52 10.7545 31.52Z" fill="black"/>
<path d="M12.7437 31.9351V29.0249H13.2929V29.4876H13.3232C13.3751 29.329 13.4688 29.2051 13.6042 29.1157C13.7397 29.0263 13.8925 28.9816 14.0626 28.9816C14.0972 28.9816 14.139 28.9816 14.188 28.9816C14.237 28.9845 14.276 28.9888 14.3048 28.9946V29.5351C14.2817 29.5294 14.2399 29.5222 14.1794 29.5135C14.1217 29.5049 14.0641 29.5005 14.0064 29.5005C13.8738 29.5005 13.7542 29.5294 13.6475 29.587C13.5437 29.6418 13.4615 29.7197 13.401 29.8206C13.3405 29.9186 13.3102 30.031 13.3102 30.1578V31.9351H12.7437Z" fill="black"/>
<path d="M15.3642 28.0519V31.9351H14.7977V28.0519H15.3642Z" fill="black"/>
<path fill-rule="evenodd" clip-rule="evenodd" d="M17.2151 31.9913C16.9816 31.9913 16.7725 31.9322 16.588 31.814C16.4035 31.693 16.2594 31.52 16.1556 31.2951C16.0518 31.0703 15.9999 30.8007 15.9999 30.4865C15.9999 30.1723 16.0518 29.9027 16.1556 29.6778C16.2623 29.453 16.4079 29.2814 16.5924 29.1632C16.7769 29.045 16.9859 28.986 17.2194 28.986C17.401 28.986 17.5466 29.0162 17.6561 29.0768C17.7657 29.1373 17.8522 29.2065 17.9156 29.2843C17.9761 29.365 18.0237 29.4357 18.0583 29.4962H18.0929V28.0519H18.6594V31.9351H18.1059V31.4811H18.0583C18.0237 31.5445 17.9747 31.6166 17.9113 31.6973C17.8479 31.7751 17.7599 31.8443 17.6475 31.9049C17.538 31.9625 17.3938 31.9913 17.2151 31.9913ZM17.3405 31.5113C17.5048 31.5113 17.6432 31.4681 17.7556 31.3816C17.868 31.2951 17.9545 31.1741 18.0151 31.0184C18.0727 30.8656 18.1016 30.6854 18.1016 30.4778C18.1016 30.276 18.0727 30.1002 18.0151 29.9503C17.9574 29.7975 17.8724 29.6793 17.7599 29.5957C17.6475 29.5092 17.5077 29.4659 17.3405 29.4659C17.1704 29.4659 17.0277 29.5106 16.9124 29.6C16.7999 29.6894 16.7149 29.8104 16.6572 29.9632C16.5996 30.116 16.5707 30.2876 16.5707 30.4778C16.5707 30.6739 16.5996 30.8497 16.6572 31.0054C16.7149 31.1611 16.8014 31.2836 16.9167 31.373C17.032 31.4652 17.1733 31.5113 17.3405 31.5113Z" fill="black"/>
<path d="M20.0345 28.0519V31.9351H19.468V28.0519H20.0345Z" fill="black"/>
<path d="M21.081 28.5752C20.9829 28.5752 20.8993 28.542 20.8302 28.4757C20.7581 28.4094 20.722 28.3301 20.722 28.2379C20.722 28.1427 20.7581 28.062 20.8302 27.9957C20.8993 27.9294 20.9829 27.8962 21.081 27.8962C21.1819 27.8962 21.2669 27.9294 21.3361 27.9957C21.4053 28.062 21.4399 28.1413 21.4399 28.2335C21.4399 28.3287 21.4053 28.4094 21.3361 28.4757C21.2669 28.542 21.1819 28.5752 21.081 28.5752ZM20.7956 31.9351V29.0249H21.362V31.9351H20.7956Z" fill="black"/>
<path d="M22.6939 30.2054V31.9352H22.1274V29.0249H22.668V29.4962H22.7069C22.7732 29.3435 22.8784 29.2195 23.0226 29.1244C23.1667 29.0321 23.3469 28.986 23.5631 28.986C23.762 28.986 23.9364 29.0278 24.0864 29.1114C24.2363 29.1921 24.3516 29.3146 24.4323 29.4789C24.5159 29.6404 24.5577 29.8422 24.5577 30.0843V31.9352H23.9912V30.1535C23.9912 29.9402 23.9364 29.7744 23.8269 29.6562C23.7145 29.5352 23.5631 29.4746 23.3728 29.4746C23.2402 29.4746 23.1235 29.5035 23.0226 29.5611C22.9188 29.6188 22.8381 29.7024 22.7804 29.8119C22.7228 29.9215 22.6939 30.0526 22.6939 30.2054Z" fill="black"/>
<path d="M26.5729 31.9957C26.2846 31.9957 26.0366 31.9337 25.8291 31.8098C25.6244 31.6858 25.4658 31.5128 25.3534 31.2908C25.241 31.066 25.1848 30.8022 25.1848 30.4995C25.1848 30.1997 25.241 29.9359 25.3534 29.7081C25.4658 29.4804 25.6229 29.3031 25.8247 29.1762C26.0237 29.0494 26.2586 28.986 26.5296 28.986C26.6939 28.986 26.8539 29.0134 27.0096 29.0681C27.1624 29.1229 27.3008 29.208 27.4247 29.3233C27.5458 29.4386 27.6424 29.5899 27.7145 29.7773C27.7865 29.9618 27.8226 30.1853 27.8226 30.4476V30.6508H25.5048V30.2271H27.2647C27.2647 30.0771 27.2345 29.9445 27.1739 29.8292C27.1134 29.7139 27.0284 29.6216 26.9188 29.5525C26.8093 29.4861 26.681 29.453 26.5339 29.453C26.3754 29.453 26.237 29.4919 26.1188 29.5698C26.0006 29.6476 25.9098 29.7485 25.8464 29.8725C25.7829 29.9993 25.7512 30.1348 25.7512 30.2789V30.6119C25.7512 30.8051 25.7858 30.9708 25.855 31.1092C25.9213 31.2447 26.0165 31.3485 26.1404 31.4206C26.2644 31.4926 26.41 31.5287 26.5772 31.5287C26.6838 31.5287 26.7819 31.5128 26.8712 31.4811C26.9606 31.4494 27.037 31.4033 27.1004 31.3427C27.1638 31.2793 27.2129 31.2015 27.2474 31.1092L27.7837 31.2087C27.7404 31.3672 27.664 31.5056 27.5545 31.6238C27.4449 31.742 27.3065 31.8328 27.1393 31.8962C26.9721 31.9625 26.7833 31.9957 26.5729 31.9957Z" fill="black"/>
<path fill-rule="evenodd" clip-rule="evenodd" d="M29.9112 31.9351V28.0519H30.4777V29.4962H30.5123C30.5469 29.4357 30.5944 29.365 30.655 29.2843C30.7184 29.2065 30.8049 29.1373 30.9144 29.0768C31.024 29.0162 31.1696 28.986 31.3512 28.986C31.5847 28.986 31.7937 29.045 31.9782 29.1632C32.1627 29.2814 32.3083 29.453 32.415 29.6778C32.5216 29.9027 32.575 30.1723 32.575 30.4865C32.575 30.8007 32.5216 31.0703 32.415 31.2951C32.3112 31.52 32.167 31.693 31.9825 31.814C31.8009 31.9322 31.5919 31.9913 31.3555 31.9913C31.1797 31.9913 31.0355 31.9625 30.9231 31.9049C30.8107 31.8443 30.7227 31.7751 30.6593 31.6973C30.5959 31.6166 30.5469 31.5445 30.5123 31.4811H30.4647V31.9351H29.9112ZM30.469 30.4778C30.469 30.6854 30.4979 30.8656 30.5555 31.0184C30.6161 31.1741 30.7025 31.2951 30.815 31.3816C30.9274 31.4681 31.0658 31.5113 31.2301 31.5113C31.3973 31.5113 31.5386 31.4652 31.6539 31.373C31.7663 31.2836 31.8528 31.1611 31.9134 31.0054C31.971 30.8497 31.9998 30.6739 31.9998 30.4778C31.9998 30.2876 31.971 30.116 31.9134 29.9632C31.8557 29.8104 31.7706 29.6894 31.6582 29.6C31.5429 29.5106 31.4002 29.4659 31.2301 29.4659C31.0658 29.4659 30.926 29.5092 30.8107 29.5957C30.6982 29.6793 30.6132 29.7975 30.5555 29.9503C30.4979 30.1002 30.469 30.276 30.469 30.4778Z" fill="black"/>
<path d="M33.2106 31.9351V29.0249H33.7555V29.4876H33.7858C33.8405 29.329 33.9342 29.2051 34.0668 29.1157C34.2023 29.0263 34.3551 28.9816 34.5252 28.9816C34.5627 28.9816 34.6045 28.9816 34.6506 28.9816C34.6996 28.9845 34.7386 28.9888 34.7674 28.9946V29.5351C34.7443 29.5294 34.704 29.5222 34.6463 29.5135C34.5886 29.5049 34.531 29.5005 34.4733 29.5005C34.3378 29.5005 34.2182 29.5294 34.1144 29.587C34.0106 29.6418 33.9285 29.7197 33.8679 29.8206C33.8074 29.9186 33.7771 30.031 33.7771 30.1578V31.9351H33.2106Z" fill="black"/>
<path fill-rule="evenodd" clip-rule="evenodd" d="M36.082 32C35.8975 32 35.7303 31.9654 35.5804 31.8962C35.4305 31.8271 35.3123 31.7276 35.2258 31.5979C35.1393 31.4652 35.0961 31.3038 35.0961 31.1135C35.0961 30.9492 35.1278 30.8137 35.1912 30.7071C35.2546 30.6004 35.3397 30.5168 35.4463 30.4562C35.5559 30.3928 35.677 30.3453 35.8096 30.3135C35.9422 30.2818 36.0777 30.2588 36.2161 30.2443C36.389 30.2242 36.5303 30.2069 36.6399 30.1925C36.7494 30.178 36.8287 30.1564 36.8777 30.1276C36.9267 30.0959 36.9512 30.0469 36.9512 29.9806V29.9676C36.9512 29.8004 36.9051 29.6721 36.8128 29.5827C36.7177 29.4905 36.5793 29.4443 36.3977 29.4443C36.2074 29.4443 36.0575 29.4862 35.948 29.5698C35.8384 29.6534 35.762 29.7471 35.7188 29.8508L35.1869 29.7298C35.2503 29.551 35.3426 29.4069 35.4636 29.2973C35.5876 29.1907 35.7289 29.1114 35.8874 29.0595C36.046 29.0105 36.2132 28.986 36.389 28.986C36.5044 28.986 36.6283 28.9989 36.7609 29.0249C36.8907 29.0537 37.0132 29.1042 37.1285 29.1762C37.2438 29.2483 37.3375 29.3507 37.4096 29.4833C37.4816 29.6159 37.5177 29.7889 37.5177 30.0022V31.9352H36.9642V31.5373H36.9426C36.9051 31.6123 36.8503 31.6843 36.7782 31.7535C36.7033 31.8256 36.6096 31.8847 36.4971 31.9308C36.3818 31.977 36.2435 32 36.082 32ZM36.2031 31.546C36.3616 31.546 36.4971 31.5143 36.6096 31.4508C36.7191 31.3903 36.8042 31.3096 36.8647 31.2087C36.9224 31.1078 36.9512 30.9997 36.9512 30.8843V30.5081C36.931 30.5283 36.8921 30.5471 36.8344 30.5644C36.7768 30.5816 36.7119 30.5961 36.6399 30.6076C36.5649 30.622 36.4928 30.6335 36.4236 30.6422C36.3544 30.6508 36.2968 30.658 36.2507 30.6638C36.1411 30.6782 36.0402 30.7027 35.948 30.7373C35.8586 30.769 35.7865 30.8152 35.7317 30.8757C35.6799 30.9391 35.6539 31.0213 35.6539 31.1222C35.6539 31.2606 35.7058 31.3658 35.8096 31.4379C35.9134 31.5099 36.0445 31.546 36.2031 31.546Z" fill="black"/>
<path d="M38.8409 30.2054V31.9352H38.2744V29.0249H38.8193V29.4962H38.8539C38.9202 29.3435 39.0254 29.2195 39.1695 29.1244C39.3137 29.0321 39.4953 28.986 39.7144 28.986C39.9133 28.986 40.0863 29.0278 40.2333 29.1114C40.3832 29.1921 40.5 29.3146 40.5836 29.4789C40.6643 29.6404 40.7047 29.8422 40.7047 30.0843V31.9352H40.1382V30.1535C40.1382 29.9402 40.0834 29.7744 39.9739 29.6562C39.8643 29.5352 39.713 29.4746 39.5198 29.4746C39.3872 29.4746 39.2705 29.5035 39.1695 29.5611C39.0686 29.6188 38.9879 29.7024 38.9274 29.8119C38.8697 29.9215 38.8409 30.0526 38.8409 30.2054Z" fill="black"/>
<path fill-rule="evenodd" clip-rule="evenodd" d="M42.5555 31.9913C42.3191 31.9913 42.1087 31.9322 41.9242 31.814C41.7425 31.693 41.5984 31.52 41.4917 31.2951C41.388 31.0703 41.3361 30.8007 41.3361 30.4865C41.3361 30.1723 41.3894 29.9027 41.4961 29.6778C41.5998 29.453 41.744 29.2814 41.9285 29.1632C42.113 29.045 42.3234 28.986 42.5598 28.986C42.7386 28.986 42.8842 29.0162 42.9966 29.0768C43.1061 29.1373 43.1912 29.2065 43.2517 29.2843C43.3151 29.365 43.3627 29.4357 43.3944 29.4962H43.429V28.0519H43.9998V31.9351H43.442V31.4811H43.3944C43.3627 31.5445 43.3137 31.6166 43.2474 31.6973C43.184 31.7751 43.0975 31.8443 42.9879 31.9049C42.8755 31.9625 42.7314 31.9913 42.5555 31.9913ZM42.6809 31.5113C42.8424 31.5113 42.9807 31.4681 43.0961 31.3816C43.2085 31.2951 43.2935 31.1741 43.3512 31.0184C43.4117 30.8656 43.442 30.6854 43.442 30.4778C43.442 30.276 43.4117 30.1002 43.3512 29.9503C43.2935 29.7975 43.2085 29.6793 43.0961 29.5957C42.9836 29.5092 42.8452 29.4659 42.6809 29.4659C42.5079 29.4659 42.3652 29.5106 42.2528 29.6C42.1404 29.6894 42.0553 29.8104 41.9977 29.9632C41.94 30.116 41.9112 30.2876 41.9112 30.4778C41.9112 30.6739 41.94 30.8497 41.9977 31.0054C42.0553 31.1611 42.1418 31.2836 42.2571 31.373C42.3696 31.4652 42.5108 31.5113 42.6809 31.5113Z" fill="black"/>
</svg>
